<svg xmlns="http://www.w3.org/2000/svg" width="47.485" height="73.041" viewBox="0 0 47.485 73.041">
  <g id="Cadeado" transform="translate(-324.13 -131.325)">
    <path id="Caminho_23" data-name="Caminho 23" d="M368.079,204.366H327.666a3.536,3.536,0,0,1-3.536-3.535V168.055a3.536,3.536,0,0,1,3.536-3.536h40.413a3.536,3.536,0,0,1,3.536,3.536v32.776a3.536,3.536,0,0,1-3.536,3.535" fill="#fc0"/>
    <path id="Caminho_24" data-name="Caminho 24" d="M362.467,167.392a2.873,2.873,0,0,1-2.873-2.873V148.792a11.721,11.721,0,0,0-23.443,0v6.148a2.873,2.873,0,1,1-5.746,0v-6.148a17.467,17.467,0,0,1,34.935,0v15.727a2.873,2.873,0,0,1-2.873,2.873" fill="#ee7302"/>
    <path id="Caminho_25" data-name="Caminho 25" d="M347.872,131.325v5.746a11.734,11.734,0,0,1,11.722,11.721v15.727a2.873,2.873,0,1,0,5.746,0V148.792a17.487,17.487,0,0,0-17.468-17.467" fill="#b93c17"/>
    <path id="Caminho_26" data-name="Caminho 26" d="M368.079,164.519H347.872v39.847h20.207a3.536,3.536,0,0,0,3.536-3.535V168.055a3.536,3.536,0,0,0-3.536-3.536" fill="#c89510"/>
    <path id="Caminho_27" data-name="Caminho 27" d="M352.676,181.263a4.8,4.8,0,1,0-6.785,4.376v4.806a1.982,1.982,0,0,0,3.963,0v-4.806a4.8,4.8,0,0,0,2.822-4.376" fill="#003e1b"/>
    <path id="Caminho_28" data-name="Caminho 28" d="M347.872,176.459v15.967a1.987,1.987,0,0,0,1.982-1.981v-4.806a4.8,4.8,0,0,0-1.982-9.18" fill="#131912"/>
  </g>
</svg>
